{"asset":{"generator":"3D Builder","version":"2.0"},"scene":0,"scenes":[{"nodes":[0]}],"nodes":[{"mesh":0,"matrix":[0.57284915447235107,0,0,0,0,-6.8288919408132642E-8,-0.572848916053772,0,0,0.057284917682409286,-2.8510692473560084E-8,0,-0.0066849207505583763,0.0025728433392941952,-0.046106774359941483,1]}],"meshes":[{"primitives":[{"attributes":{"POSITION":0},"mode":4,"indices":1,"material":0}]}],"materials":[{"name":"Turquoise","pbrMetallicRoughness":{"baseColorFactor":[0,0.3515326976776123,0.80695247650146484,1],"metallicFactor":0,"roughnessFactor":1},"alphaMode":"OPAQUE"}],"accessors":[{"bufferView":0,"byteOffset":0,"count":240,"componentType":5126,"type":"VEC3","min":[-0.023243602365255356,-0.11540000885725021,-0.044913202524185181],"max":[0.046582803130149841,-0.045573603361845016,0.024913201108574867]},{"bufferView":1,"byteOffset":0,"count":1428,"componentType":5125,"type":"SCALAR"}],"bufferViews":[{"buffer":0,"byteOffset":0,"byteLength":2880,"byteStride":12,"target":34962},{"buffer":0,"byteOffset":2880,"byteLength":5712,"target":34963}],"buffers":[{"byteLength":8592,"uri":"base.bin"}]}