{"asset":{"generator":"3D Builder","version":"2.0"},"scene":0,"scenes":[{"nodes":[0,1]}],"nodes":[{"mesh":0,"matrix":[0.42963692545890808,0,0,0,0,-5.1216716201452073E-8,-0.42963689565658569,0,0,0.572848916053772,-8.4550272561045858E-8,0,-0.0050135627388954163,0.065728470683097839,-0.034579955041408539,1]},{"mesh":1,"matrix":[-1.1810929775238037,-2.5434295025661413E-7,1.7552207509652362E-7,0,-4.1579670551072923E-7,-2.9122202249709517E-7,-1.1811114549636841,0,4.9657620593279717E-7,-0.78740149736404419,1.9295803213026375E-6,0,-0.099463187158107758,0.039999864995479584,-0.11013533174991608,1]}],"meshes":[{"primitives":[{"attributes":{"POSITION":0,"COLOR_0":1},"mode":4,"indices":2}]},{"primitives":[{"attributes":{"POSITION":3,"COLOR_0":4},"mode":4,"indices":5}]}],"accessors":[{"bufferView":0,"byteOffset":0,"count":240,"componentType":5126,"type":"VEC3","min":[-0.023243602365255356,-0.11540000885725021,-0.044913202524185181],"max":[0.046582803130149841,-0.045573603361845016,0.024913201108574867]},{"bufferView":1,"byteOffset":0,"count":240,"componentType":5121,"type":"VEC4","normalized":true},{"bufferView":2,"byteOffset":0,"count":1428,"componentType":5125,"type":"SCALAR"},{"bufferView":3,"byteOffset":0,"count":97,"componentType":5126,"type":"VEC3","min":[-0.10961300134658813,-0.118647001683712,-9.90071029605133E-8],"max":[-0.058812599629163742,-0.067847400903701782,0.0507998988032341]},{"bufferView":4,"byteOffset":0,"count":97,"componentType":5121,"type":"VEC4","normalized":true},{"bufferView":5,"byteOffset":0,"count":570,"componentType":5125,"type":"SCALAR"}],"bufferViews":[{"buffer":0,"byteOffset":0,"byteLength":2880,"byteStride":12,"target":34962},{"buffer":0,"byteOffset":2880,"byteLength":960,"byteStride":4,"target":34962},{"buffer":0,"byteOffset":3840,"byteLength":5712,"target":34963},{"buffer":0,"byteOffset":9552,"byteLength":1164,"byteStride":12,"target":34962},{"buffer":0,"byteOffset":10716,"byteLength":388,"byteStride":4,"target":34962},{"buffer":0,"byteOffset":11104,"byteLength":2280,"target":34963}],"buffers":[{"byteLength":13384,"uri":"fleche.bin"}]}